<?xml version="1.0" encoding="UTF-8" standalone="no"?>
<!DOCTYPE svg PUBLIC "-//W3C//DTD SVG 1.1//EN" "http://www.w3.org/Graphics/SVG/1.1/DTD/svg11.dtd">
<svg width="100%" height="100%" viewBox="0 0 185 61" version="1.1" xmlns="http://www.w3.org/2000/svg" xmlns:xlink="http://www.w3.org/1999/xlink" xml:space="preserve" xmlns:serif="http://www.serif.com/" style="fill-rule:evenodd;clip-rule:evenodd;stroke-linejoin:round;stroke-miterlimit:2;">
    <g transform="matrix(1,0,0,1,181.453,-366.3)">
        <path d="M-21.4,366.5C-16.2,366.4 -11.1,366.5 -5.9,366.5C-5.2,366.5 -4.7,367.1 -4.8,367.8C-7.4,381.2 -9.9,394.7 -12.7,408.1C-12.8,408.8 -12.3,409.5 -11.6,409.5L2.1,409.5C2.8,409.5 3.3,410.2 3.2,410.9L0.5,424.7C0.4,425.2 -0.1,425.6 -0.6,425.6L-32.2,425.6C-32.9,425.6 -33.4,425 -33.3,424.3C-32.6,420.9 -32.3,417.3 -30.4,414.3C-27.4,408.9 -26.2,402.5 -27.7,396.4L-27.7,396C-26.9,390.2 -25.4,384.5 -24.5,378.7C-24.2,376.2 -22.9,374.1 -21.6,372C-21.3,371.6 -21.4,371 -21.7,370.7C-22.4,369.8 -22.6,368.7 -22.5,367.6C-22.5,367 -22,366.6 -21.4,366.5ZM-63.4,370.6C-62.8,370.9 -62.6,371.6 -62.9,372.2C-65.2,376.2 -67.5,380.2 -69.8,384.1C-70.1,384.7 -70.9,384.8 -71.4,384.5C-74.9,382.1 -79,379.9 -83.3,381.1C-85.6,381.7 -87.1,385.1 -84.7,386.5C-80.4,388.6 -75.1,388.9 -71.5,392.4C-67.1,395.9 -66.7,402.2 -68.4,407.2C-70.5,415.5 -77.2,422.2 -85.3,424.6C-94.4,427.6 -105.3,425.9 -112.4,419.2C-112.8,418.9 -112.8,418.3 -112.6,417.9C-110.4,413.7 -108.3,409.5 -106.2,405.3C-105.8,404.6 -104.9,404.5 -104.3,405.1C-100.8,409.2 -95.8,412.7 -90.2,411.7C-87.8,411.3 -84.1,408 -86.6,405.8C-91.2,403.2 -97.1,403 -101.1,399.4C-105.1,395.8 -105.8,389.7 -104.3,384.8C-102.1,377.6 -96.4,371.5 -89.3,368.8C-81,365.3 -71.4,366.5 -63.4,370.6Z" style="fill:white;fill-rule:nonzero;"/>
    </g>
    <g transform="matrix(1,0,0,1,181.453,-366.3)">
        <path d="M-26.2,370.7C-25.7,371 -25.5,371.7 -25.8,372.2L-32.7,384.2C-33,384.8 -33.7,384.9 -34.2,384.6C-37.2,382.6 -40.4,380.7 -44.1,380.8C-46.2,380.6 -48.1,382 -48.8,383.9C-48.8,384.1 -48.8,384.3 -48.9,384.5C-48.4,387.1 -45.2,387.5 -43.1,388.2C-37.7,389.5 -32,392.5 -30.6,398.2C-29.3,406.4 -33.1,414.9 -39.4,420C-48.3,427.2 -61.5,427.8 -71.4,422.3C-72,421.9 -72.2,421.1 -71.7,420.6C-68.6,417.4 -66.2,413.7 -64.7,409.5C-64.5,408.8 -63.7,408.6 -63.1,409C-59.7,411.2 -55.4,412.9 -51.5,410.9C-50.1,410.3 -49.4,408.9 -48.8,407.6C-48.6,407.1 -48.7,406.6 -49.1,406.3C-52.9,403.3 -58.3,403.3 -62.4,400.7C-62.7,400.5 -62.8,400.2 -62.9,399.9C-63.4,396.1 -65,392.6 -67.7,389.9C-68.1,389.5 -68.1,389 -67.9,388.5C-64.4,383.1 -61.6,377.2 -57.9,371.9L-57.6,371.6C-48.5,365.1 -35.8,365.5 -26.2,370.7Z" style="fill:white;"/>
    </g>
    <g transform="matrix(1,0,0,1,181.453,-366.3)">
        <path d="M-180.7,376.9L-172.1,376.9C-171.6,376.9 -171.1,376.5 -171,376L-169.2,367.3C-169.1,366.8 -169.4,366.4 -169.9,366.4L-178.5,366.4C-179,366.4 -179.5,366.8 -179.6,367.3L-181.4,376C-181.6,376.5 -181.2,376.9 -180.7,376.9ZM-171,391.8L-162.4,391.8C-161.9,391.8 -161.4,391.4 -161.3,390.9L-159.5,382.2C-159.4,381.7 -159.7,381.3 -160.2,381.3L-168.8,381.3C-169.3,381.3 -169.8,381.7 -169.9,382.2L-171.7,390.9C-171.9,391.4 -171.6,391.8 -171,391.8Z" style="fill:rgb(189,189,189);fill-rule:nonzero;"/>
    </g>
    <g transform="matrix(1,0,0,1,181.453,-366.3)">
        <path d="M-112.5,376.8L-117.8,376.8C-118.3,376.8 -118.6,376.4 -118.5,375.9L-116.7,367.2C-116.6,366.7 -116.9,366.3 -117.4,366.3L-163.6,366.3C-164.1,366.3 -164.6,366.7 -164.7,367.2L-166.5,375.9C-166.6,376.4 -166.3,376.8 -165.8,376.8L-154.7,376.8C-154.2,376.8 -153.9,377.2 -154,377.7L-164.1,425.6C-164.2,426.1 -163.9,426.5 -163.4,426.5L-123,426.5C-122.5,426.5 -122,426.1 -121.9,425.6L-111.8,377.7C-111.7,377.2 -112,376.8 -112.5,376.8ZM-132.3,395.4C-132.5,397 -133.5,398.5 -134.9,399.4L-135.3,410.2C-135.3,410.8 -135.9,411.5 -136.5,411.5L-144,411.5C-144.6,411.5 -144.8,410.9 -144.6,410.2L-140,399.6C-141.1,398.7 -141.6,397.2 -141,395.4C-140.3,393.3 -138.4,391.7 -136.4,391.4C-136.1,391.4 -135.8,391.3 -135.5,391.4C-135.2,391.4 -134.9,391.5 -134.7,391.5C-133,391.9 -132,393.5 -132.3,395.4Z" style="fill:rgb(189,189,189);fill-rule:nonzero;"/>
    </g>
</svg>
